# xmcd CD database file
#
# Track frame offsets:
#	150
#	22975
#	44720
#	65950
#	88815
#	113120
#	130597
#	149212
#	159407
#	185880
#	200315
#
# Disc length: 2841 seconds
#
# Revision: 0
# Processed by: cddbd v1.5.1PL0 Copyright (c) Steve Scherf et al.
# Submitted via: CDex 1.51
#
DISCID=a90b170b
DTITLE=榊原大 - As for You
DYEAR=2004
DGENRE=New Age
TTITLE0=出会いの朝
TTITLE1=桜雅−ｻｸﾗﾐﾔﾋﾞ−
TTITLE2=As for Ｙou
TTITLE3=風の行方
TTITLE4=凪〜calm〜　(曲：小森啓資)
TTITLE5=記憶
TTITLE6=夜間飛行（for film music）
TTITLE7=Play Piano Play VI 　(曲：Ｆ．グルダ)
TTITLE8=羽衣
TTITLE9=混乱の空の下　(曲：木村玲)
TTITLE10=雨花火
EXTD=YEAR: 2004.08.24
EXTT0=
EXTT1=
EXTT2=
EXTT3=
EXTT4=
EXTT5=
EXTT6=
EXTT7=
EXTT8=
EXTT9=
EXTT10=
PLAYORDER=
